# xmcd
#
# Track frame offsets: 
#        183
#        11208
#        23840
#        46505
#        67603
#        85470
#        104100
#        123830
#        145063
#        160403
#        186408
#        203370
#        211365
#
# Disc length: 3147 seconds
#
# Revision: 6
# Processed by: cddbd v1.5.2PL0 Copyright (c) Steve Scherf et al.
# Submitted via: ExactAudioCopy v0.95b4
#
DISCID=ac0c490d
DTITLE=Queen - The Miracle
DYEAR=1900
DGENRE=
TTITLE0=Party
TTITLE1=Khashoggi's Ship
TTITLE2=The Miracle
TTITLE3=I Want It All
TTITLE4=The Invisible Man
TTITLE5=Breakthru
TTITLE6=Rain Must Fall
TTITLE7=Scandal
TTITLE8=My Baby Does Me
TTITLE9=Was It All Worth It
TTITLE10=Hang On In There
TTITLE11=Chinese Torture
TTITLE12=The Invisible Man (12" Version)
EXTD=
EXTT0=
EXTT1=
EXTT2=
EXTT3=
EXTT4=
EXTT5=
EXTT6=
EXTT7=
EXTT8=
EXTT9=
EXTT10=
EXTT11=
EXTT12=
PLAYORDER=
